<svg width="100" height="100" viewBox="0 0 100 100" fill="none" xmlns="http://www.w3.org/2000/svg">
<path d="M71.3375 89.0167L80.1792 80.1792M89.0167 71.3375L80.1792 80.1792M80.1792 80.1792L71.3334 71.3333M80.175 80.175L89.0125 89.0125M16.6667 25V50C16.6667 50 16.6667 62.5 45.8334 62.5C75 62.5 75 50 75 50V25" stroke="white" stroke-width="4" stroke-linecap="round" stroke-linejoin="round"/>
<path d="M45.8334 87.5C16.6667 87.5 16.6667 75 16.6667 75V50M45.8334 12.5C75 12.5 75 25 75 25C75 25 75 37.5 45.8334 37.5C16.6667 37.5 16.6667 25 16.6667 25C16.6667 25 16.6667 12.5 45.8334 12.5Z" stroke="white" stroke-width="4" stroke-linecap="round" stroke-linejoin="round"/>
</svg>
