<svg width="36" height="36" viewBox="0 0 36 36" fill="none" xmlns="http://www.w3.org/2000/svg">
<path d="M33 13.293C33.0052 15.6011 32.1159 17.8215 30.519 19.488C26.8575 23.2845 23.3055 27.243 19.509 30.9C18.6375 31.725 17.256 31.695 16.4235 30.8325L5.48099 19.4895C2.17349 16.0605 2.17349 10.5255 5.48099 7.098C6.2627 6.2775 7.2029 5.62428 8.24458 5.17796C9.28625 4.73164 10.4077 4.5015 11.541 4.5015C12.6743 4.5015 13.7957 4.73164 14.8374 5.17796C15.8791 5.62428 16.8193 6.2775 17.601 7.098L18 7.509L18.3975 7.098C19.1808 6.27944 20.1213 5.62742 21.1625 5.181C22.2038 4.73459 23.3245 4.50296 24.4575 4.5C26.7375 4.5 28.917 5.436 30.5175 7.098C32.115 8.76427 33.0048 10.9847 33 13.293Z" fill="white" stroke="white" stroke-width="2.25" stroke-linejoin="round"/>
</svg>
