<svg width="36" height="36" viewBox="0 0 36 36" fill="none" xmlns="http://www.w3.org/2000/svg">
<path d="M23.25 23.25L28.5 28.5M7.5 16.5C7.5 17.6819 7.73279 18.8522 8.18508 19.9442C8.63738 21.0361 9.30031 22.0282 10.136 22.864C10.9718 23.6997 11.9639 24.3626 13.0558 24.8149C14.1478 25.2672 15.3181 25.5 16.5 25.5C17.6819 25.5 18.8522 25.2672 19.9442 24.8149C21.0361 24.3626 22.0282 23.6997 22.864 22.864C23.6997 22.0282 24.3626 21.0361 24.8149 19.9442C25.2672 18.8522 25.5 17.6819 25.5 16.5C25.5 14.1131 24.5518 11.8239 22.864 10.136C21.1761 8.44821 18.8869 7.5 16.5 7.5C14.1131 7.5 11.8239 8.44821 10.136 10.136C8.44821 11.8239 7.5 14.1131 7.5 16.5V16.5Z" stroke="white" stroke-width="2.25" stroke-linecap="round" stroke-linejoin="round"/>
</svg>
